<svg version="1.1" id="Layer_1" xmlns="http://www.w3.org/2000/svg" xmlns:xlink="http://www.w3.org/1999/xlink" x="0px" y="0px"
	 width="100%" viewBox="0 0 1024 1024" enable-background="new 0 0 1024 1024" xml:space="preserve">
<path fill="#000000" opacity="1.000000" stroke="none" 
	d="
M442.864960,752.999939 
	C442.875549,720.333435 442.879089,688.166809 442.902679,656.000244 
	C442.907654,649.206604 443.150391,648.965576 449.918488,648.943848 
	C460.585022,648.909607 471.251770,648.939819 481.918335,648.910950 
	C521.129700,648.804993 549.425842,611.352783 538.954346,573.432373 
	C531.922791,547.968750 507.681580,529.415771 481.207031,529.377930 
	C443.040558,529.323425 404.865082,529.869263 366.709747,529.213013 
	C326.397247,528.519714 297.991516,508.657043 281.254761,472.298676 
	C276.081116,461.059662 273.848358,448.809174 273.834717,436.367554 
	C273.757629,366.201111 273.788849,296.034546 273.784454,225.868027 
	C273.783997,218.668915 273.787872,218.651123 280.870758,218.650696 
	C343.203949,218.647049 405.537170,218.648300 467.870361,218.653900 
	C475.325653,218.654572 475.334045,218.670609 475.335144,226.371445 
	C475.338654,250.871384 475.335358,275.371338 475.334747,299.871277 
	C475.334686,302.351074 475.334747,304.830841 475.334747,307.815704 
	C477.599762,307.170624 478.282867,305.631683 479.191467,304.371399 
	C498.874390,277.070312 518.578613,249.784500 538.196960,222.437149 
	C540.128418,219.744766 542.291565,218.581589 545.676575,218.585953 
	C612.509705,218.672134 679.342896,218.650711 746.176086,218.668381 
	C747.641602,218.668762 749.176697,218.396973 750.585510,219.312012 
	C751.275940,221.483826 749.464844,222.660721 748.473877,224.031296 
	C694.879700,298.154175 641.194763,372.211548 587.717896,446.418915 
	C584.202637,451.296906 580.583740,453.110718 574.577209,453.093994 
	C505.411346,452.901367 436.244720,453.009369 367.078278,453.027130 
	C356.461609,453.029846 350.500458,448.656921 348.399017,439.403839 
	C346.510498,431.088196 351.687592,422.806122 360.077881,420.718140 
	C363.017303,419.986633 366.009735,419.969086 369.015503,419.969879 
	C432.515350,419.986694 496.015350,419.926697 559.514709,420.108063 
	C564.610352,420.122620 567.586487,418.492828 570.540222,414.377289 
	C607.264648,363.209045 644.196472,312.189758 681.052368,261.115814 
	C683.152344,258.205750 685.056702,255.154526 687.082275,252.123779 
	C684.900513,250.717941 683.023254,251.143768 681.257874,251.141708 
	C641.757996,251.095840 602.257935,251.135239 562.758423,251.005005 
	C559.168701,250.993179 556.913635,252.244385 554.887146,255.065765 
	C526.991943,293.903442 498.973816,332.653046 471.163635,371.551361 
	C468.629791,375.095428 466.038605,376.433746 461.719177,376.410034 
	C430.886871,376.240601 400.052887,376.257446 369.219971,376.368988 
	C350.702148,376.435974 334.762360,382.503143 322.039703,396.550018 
	C297.204590,423.969971 303.605103,467.827576 335.331146,487.080170 
	C345.621307,493.324677 356.630737,496.026703 368.604614,495.982452 
	C404.770691,495.848846 440.939240,496.161255 477.103729,495.886536 
	C512.565613,495.617157 539.650879,510.222443 560.128113,539.156494 
	C599.015991,594.104736 638.587708,648.569092 677.880127,703.230957 
	C701.903748,736.651550 725.938477,770.064087 749.951355,803.492371 
	C750.510071,804.270020 750.868286,805.191528 751.311401,806.029724 
	C749.845947,808.107056 747.842896,807.314392 746.167603,807.315491 
	C679.667725,807.359314 613.167847,807.318726 546.668152,807.435913 
	C542.689026,807.442993 540.345337,806.079163 538.072998,802.902771 
	C518.392212,775.392151 498.542725,748.002197 478.737457,720.580627 
	C478.067841,719.653442 477.563538,718.538208 476.054199,718.105469 
	C474.836609,719.840149 475.386078,721.867004 475.382660,723.723816 
	C475.335022,749.557007 475.238434,775.391174 475.442017,801.222778 
	C475.479401,805.972595 474.180176,807.470703 469.298676,807.459106 
	C406.465851,807.309387 343.632538,807.366699 280.799347,807.362549 
	C274.059998,807.362122 274.057556,807.335449 274.085968,800.238342 
	C274.244720,760.586792 274.819763,720.931213 274.436493,681.284912 
	C274.114319,647.954590 274.351990,614.626892 274.083893,581.299194 
	C274.017120,572.997009 274.070190,572.980591 282.347473,572.980347 
	C348.180634,572.978455 414.013824,572.982910 479.846985,572.987610 
	C481.180145,572.987732 482.516998,572.955017 483.845917,573.037537 
	C493.463318,573.635193 499.593719,580.418091 499.382721,590.195801 
	C499.189636,599.143433 492.635406,605.325745 483.057892,605.331543 
	C426.891357,605.365723 370.724823,605.349854 314.558289,605.351440 
	C313.224976,605.351501 311.886963,605.432251 310.559326,605.347229 
	C307.568726,605.155579 306.410339,606.493286 306.412292,609.483765 
	C306.447723,662.961304 306.451111,716.438843 306.367737,769.916260 
	C306.361969,773.617554 307.730804,774.868530 311.365570,774.861877 
	C353.531982,774.785217 395.698700,774.782532 437.865112,774.863403 
	C441.470886,774.870300 443.025879,773.742126 442.890228,769.988281 
	C442.691864,764.499023 442.855621,758.996643 442.864960,752.999939 
M682.986267,766.472107 
	C645.892273,714.981384 608.798279,663.490662 571.301758,611.441223 
	C558.783508,651.696106 532.098572,674.392578 491.675415,681.482605 
	C492.506989,682.849121 492.812531,683.439148 493.197693,683.971558 
	C513.988892,712.707581 534.839783,741.400696 555.512939,770.221313 
	C557.940491,773.605652 560.609131,774.783752 564.664246,774.768799 
	C603.138733,774.626770 641.613770,774.652710 680.088684,774.637146 
	C682.525818,774.636169 684.943054,774.576599 687.333252,773.735107 
	C686.577515,770.900757 684.661377,769.168457 682.986267,766.472107 
M378.500549,342.757690 
	C397.983124,342.759552 417.465668,342.766907 436.948242,342.760223 
	C443.477936,342.757996 443.572876,342.741760 443.579071,336.117828 
	C443.603577,309.978088 443.586334,283.838226 443.531464,257.698517 
	C443.517029,250.811783 442.928925,250.288162 436.192200,250.285629 
	C395.395508,250.270294 354.598846,250.263046 313.802155,250.256592 
	C307.065002,250.255524 307.019684,250.279266 307.017700,256.811340 
	C307.007629,290.281219 307.002563,323.751068 307.040741,357.220917 
	C307.043121,359.308594 306.616119,361.504395 307.961884,363.877502 
	C310.335480,362.199829 312.574188,360.563751 314.866150,359.006042 
	C333.807312,346.132965 354.993042,341.892212 378.500549,342.757690 
z"/>
</svg>